<svg width="20" height="20" viewBox="0 0 20 20" fill="none" xmlns="http://www.w3.org/2000/svg">
<g clip-path="url(#clip0_56_111)">
<path d="M10.0001 20C15.514 20 19.9999 15.514 19.9999 9.99995C19.9999 4.48604 15.514 0 10.0001 0C4.48619 0 0.000244141 4.48604 0.000244141 9.99995C0.000244141 15.514 4.48619 20 10.0001 20ZM10.0001 1.36892C14.7592 1.36892 18.631 5.24077 18.6311 9.99995C18.6311 14.7591 14.7593 18.631 10.0001 18.6311C5.24101 18.631 1.36925 14.7591 1.36925 9.99986C1.36925 5.24086 5.24101 1.36892 10.0001 1.36892Z" fill="white"/>
<path d="M8.65724 14.283C8.92454 14.5502 9.35794 14.5501 9.62516 14.283C9.89255 14.0156 9.89255 13.5823 9.62507 13.3149L6.99492 10.6849L14.6113 10.6841C14.9893 10.684 15.2957 10.3777 15.2957 9.99948C15.2956 9.62147 14.9892 9.3152 14.6112 9.3152L6.99455 9.31593L9.62534 6.68532C9.89264 6.41802 9.89264 5.98453 9.62534 5.71732C9.49164 5.58371 9.31651 5.51682 9.14129 5.51682C8.96616 5.51682 8.79103 5.58371 8.65733 5.71722L4.85822 9.51625C4.72981 9.64456 4.65771 9.8186 4.65771 10.0002C4.65781 10.1818 4.7299 10.3558 4.85831 10.4843L8.65724 14.283Z" fill="white"/>
</g>
<defs>
<clipPath id="clip0_56_111">
<rect width="20" height="20" fill="white"/>
</clipPath>
</defs>
</svg>
