<svg width="25" height="25" viewBox="0 0 25 25" fill="none" xmlns="http://www.w3.org/2000/svg">
<path opacity="0.5" d="M20.3768 7.29167C20.615 5.93253 19.5691 4.6875 18.1893 4.6875H6.8103C5.43046 4.6875 4.38462 5.93253 4.62276 7.29167M18.2291 4.6875C18.2587 4.41762 18.2734 4.28266 18.2737 4.1712C18.2761 3.10492 17.4728 2.209 16.4126 2.09523C16.3018 2.08333 16.1661 2.08333 15.8946 2.08333H9.10521C8.83371 2.08333 8.69795 2.08333 8.58712 2.09523C7.52693 2.209 6.72377 3.10492 6.7261 4.17119C6.72634 4.28266 6.74112 4.4176 6.77067 4.6875" stroke="white"/>
<path d="M15.625 18.75H9.375" stroke="white" stroke-linecap="round"/>
<path d="M2.48283 14.3677C2.01822 11.0723 1.78592 9.42464 2.77326 8.35816C3.7606 7.29167 5.51832 7.29167 9.03375 7.29167H15.9663C19.4817 7.29167 21.2394 7.29167 22.2268 8.35816C23.2141 9.42464 22.9818 11.0723 22.5172 14.3677L22.0766 17.4927C21.7122 20.077 21.5301 21.3691 20.5955 22.1429C19.6609 22.9167 18.2825 22.9167 15.5256 22.9167H9.47434C6.71752 22.9167 5.3391 22.9167 4.40453 22.1429C3.46996 21.3691 3.28778 20.077 2.92343 17.4927L2.48283 14.3677Z" stroke="white"/>
</svg>
