<svg width="32" height="32" viewBox="0 0 32 32" fill="none" xmlns="http://www.w3.org/2000/svg">
<g clip-path="url(#clip0_546_165)">
<path d="M16.8594 31.7074C15.9589 31.707 15.06 31.6336 14.1714 31.488C9.825 30.7747 5.93942 28.3656 3.36802 24.7896C0.796616 21.2137 -0.250347 16.7633 0.457074 12.416C0.852933 9.94111 1.80699 7.58884 3.24693 5.53744C4.68687 3.48604 6.5749 1.78935 8.76793 0.575977C9.13792 0.369249 9.5595 0.273135 9.98253 0.299068C10.4056 0.325001 10.8122 0.471889 11.1542 0.722263C11.5038 0.961425 11.7763 1.29701 11.9386 1.6882C12.1009 2.07939 12.146 2.50932 12.0685 2.92569L10.8799 2.83426L12.0045 3.03541C11.37 6.40088 11.9629 9.88229 13.6756 12.848C15.3883 15.8138 18.1073 18.0674 21.3394 19.2C23.8284 20.0638 26.5061 20.2313 29.0834 19.6845C29.4912 19.6045 29.9132 19.64 30.302 19.787C30.6907 19.9339 31.0306 20.1866 31.2835 20.5164C31.5363 20.8463 31.692 21.2402 31.733 21.6537C31.7739 22.0673 31.6986 22.4841 31.5154 22.8571C30.1052 25.5232 27.9963 27.7553 25.4145 29.3144C22.8327 30.8735 19.8754 31.7007 16.8594 31.7074ZM9.75536 2.64226C8.0066 3.63384 6.48609 4.98236 5.29269 6.60014C4.09929 8.21791 3.25971 10.0687 2.82855 12.0323C2.39738 13.9958 2.38427 16.0281 2.79007 17.9971C3.19587 19.966 4.0115 21.8275 5.18393 23.4605C6.59705 25.4359 8.48943 27.0193 10.6831 28.0617C12.8767 29.1042 15.2995 29.5716 17.7235 29.4198C20.1475 29.268 22.493 28.5021 24.5395 27.1941C26.5859 25.8861 28.266 24.079 29.4216 21.9428C26.4809 22.534 23.4357 22.332 20.5988 21.3577C16.8555 20.0452 13.705 17.4373 11.7164 14.005C9.72784 10.5728 9.03227 6.54251 9.75536 2.64226Z" fill="white"/>
</g>
<defs>
<clipPath id="clip0_546_165">
<rect width="32" height="32" fill="white"/>
</clipPath>
</defs>
</svg>
