<svg width="32" height="32" viewBox="0 0 32 32" fill="none" xmlns="http://www.w3.org/2000/svg">
<path d="M16 1.66675C15.6691 1.66665 15.342 1.73694 15.0403 1.87294C14.7386 2.00895 14.4694 2.20756 14.2503 2.45559C14.0313 2.70363 13.8675 2.99541 13.7699 3.31158C13.6722 3.62775 13.643 3.96107 13.684 4.28941C11.6765 4.80436 9.89737 5.97255 8.62688 7.60996C7.3564 9.24736 6.66678 11.2609 6.66667 13.3334V22.6667H5.33333C4.97971 22.6667 4.64057 22.8072 4.39052 23.0573C4.14048 23.3073 4 23.6465 4 24.0001C4 24.3537 4.14048 24.6928 4.39052 24.9429C4.64057 25.1929 4.97971 25.3334 5.33333 25.3334H26.6667C27.0203 25.3334 27.3594 25.1929 27.6095 24.9429C27.8595 24.6928 28 24.3537 28 24.0001C28 23.6465 27.8595 23.3073 27.6095 23.0573C27.3594 22.8072 27.0203 22.6667 26.6667 22.6667H25.3333V13.3334C25.3332 11.2609 24.6436 9.24736 23.3731 7.60996C22.1026 5.97255 20.3235 4.80436 18.316 4.28941C18.357 3.96107 18.3278 3.62775 18.2301 3.31158C18.1325 2.99541 17.9687 2.70363 17.7497 2.45559C17.5306 2.20756 17.2614 2.00895 16.9597 1.87294C16.658 1.73694 16.3309 1.66665 16 1.66675ZM16 30.6667C14.9391 30.6667 13.9217 30.2453 13.1716 29.4952C12.4214 28.745 12 27.7276 12 26.6667H20C20 27.7276 19.5786 28.745 18.8284 29.4952C18.0783 30.2453 17.0609 30.6667 16 30.6667Z" fill="white"/>
</svg>
