<svg width="32" height="32" viewBox="0 0 32 32" fill="none" xmlns="http://www.w3.org/2000/svg">
<path d="M25.3 24.0832C23.5743 26.0682 21.2593 27.4496 18.693 28.0256C16.1266 28.6016 13.4434 28.342 11.035 27.2849C8.62657 26.2275 6.61931 24.4278 5.30629 22.1487C3.99328 19.8696 3.44328 17.2304 3.73662 14.6165C4.02973 12.0024 5.15096 9.55052 6.93656 7.6189C8.72215 5.68728 11.0786 4.37716 13.6616 3.87988M18.3333 3.88988C20.0679 4.22394 21.7105 4.92673 23.1499 5.95067C24.5894 6.97461 25.7921 8.29582 26.6766 9.82488C27.5612 11.354 28.1071 13.0552 28.2772 14.8136C28.4472 16.5719 28.2376 18.3463 27.6625 20.0165" stroke="white" stroke-width="2" stroke-linecap="round"/>
<path d="M13.3333 15.3333V12.9499C13.3333 11.5048 14.5271 10.3333 15.9999 10.3333C17.4728 10.3333 18.6666 11.5048 18.6666 12.9499V15.3333M12.6666 15.3333H19.3333C20.0719 15.3333 20.6666 15.9279 20.6666 16.6666V20.3333C20.6666 21.0719 20.0719 21.6666 19.3333 21.6666H12.6666C11.9279 21.6666 11.3333 21.0719 11.3333 20.3333V16.6666C11.3333 15.9279 11.9279 15.3333 12.6666 15.3333Z" stroke="white"/>
</svg>
