<svg width="30" height="30" viewBox="0 0 30 30" fill="none" xmlns="http://www.w3.org/2000/svg">
<path d="M11.875 24.6875C12.3928 24.6875 12.8125 24.2677 12.8125 23.75C12.8125 23.2322 12.3928 22.8125 11.875 22.8125V24.6875ZM13.75 6.25V7.1875C14.1291 7.1875 14.471 6.95908 14.6161 6.60876C14.7612 6.25845 14.681 5.85521 14.4129 5.58708L13.75 6.25ZM11.9129 3.08708C11.5468 2.72097 10.9532 2.72097 10.5871 3.08708C10.221 3.4532 10.221 4.0468 10.5871 4.41291L11.9129 3.08708ZM11.875 22.8125H11.2504V24.6875H11.875V22.8125ZM11.25 7.1875H13.75V5.3125H11.25V7.1875ZM14.4129 5.58708L11.9129 3.08708L10.5871 4.41291L13.0871 6.91291L14.4129 5.58708ZM1.5625 15C1.5625 20.3502 5.90014 24.6875 11.2504 24.6875V22.8125C6.93558 22.8125 3.4375 19.3146 3.4375 15H1.5625ZM3.4375 15C3.4375 10.6853 6.93527 7.1875 11.25 7.1875V5.3125C5.89974 5.3125 1.5625 9.64973 1.5625 15H3.4375Z" fill="white"/>
<path opacity="0.5" d="M16.25 23.75V22.8125C15.8709 22.8125 15.529 23.0409 15.3839 23.3912C15.2388 23.7415 15.319 24.1447 15.5871 24.4129L16.25 23.75ZM18.0871 26.9129C18.4533 27.279 19.0468 27.279 19.4129 26.9129C19.779 26.5467 19.779 25.9532 19.4129 25.5871L18.0871 26.9129ZM18.125 5.3125C17.6073 5.3125 17.1875 5.73224 17.1875 6.25C17.1875 6.76776 17.6073 7.1875 18.125 7.1875V5.3125ZM18.75 22.8125H16.25V24.6875H18.75V22.8125ZM15.5871 24.4129L18.0871 26.9129L19.4129 25.5871L16.9129 23.0871L15.5871 24.4129ZM18.125 7.1875H18.75V5.3125H18.125V7.1875ZM26.5625 15C26.5625 19.3147 23.0648 22.8125 18.75 22.8125V24.6875C24.1003 24.6875 28.4375 20.3502 28.4375 15H26.5625ZM28.4375 15C28.4375 9.64974 24.1003 5.3125 18.75 5.3125V7.1875C23.0648 7.1875 26.5625 10.6853 26.5625 15H28.4375Z" fill="white"/>
</svg>
