<svg width="52" height="52" viewBox="0 0 52 52" fill="none" xmlns="http://www.w3.org/2000/svg">
<mask id="path-1-inside-1_528_155" fill="white">
<path d="M20.9121 20.6456H28.8242V23.283L34.9781 19.7665L28.8242 16.25V18.8874H20.9121C16.5165 18.8874 13 22.4039 13 26.7995C13 27.8544 13.1758 28.9094 13.7033 29.9643L15.2857 29.0852C14.9341 28.3819 14.7582 27.6786 14.7582 26.7995C14.7582 23.4588 17.5714 20.6456 20.9121 20.6456ZM36.9121 23.6346L35.3297 24.5138C35.6814 25.217 35.8572 25.9203 35.8572 26.7995C35.8572 30.1401 33.044 32.9533 29.7033 32.9533H21.7912V30.316L15.6374 33.8324L21.7912 37.3489V34.7116H29.7033C34.0989 34.7116 37.6154 31.1951 37.6154 26.7995C37.6154 25.7445 37.4396 24.6896 36.9121 23.6346Z"/>
</mask>
<path d="M20.9121 20.6456H28.8242V23.283L34.9781 19.7665L28.8242 16.25V18.8874H20.9121C16.5165 18.8874 13 22.4039 13 26.7995C13 27.8544 13.1758 28.9094 13.7033 29.9643L15.2857 29.0852C14.9341 28.3819 14.7582 27.6786 14.7582 26.7995C14.7582 23.4588 17.5714 20.6456 20.9121 20.6456ZM36.9121 23.6346L35.3297 24.5138C35.6814 25.217 35.8572 25.9203 35.8572 26.7995C35.8572 30.1401 33.044 32.9533 29.7033 32.9533H21.7912V30.316L15.6374 33.8324L21.7912 37.3489V34.7116H29.7033C34.0989 34.7116 37.6154 31.1951 37.6154 26.7995C37.6154 25.7445 37.4396 24.6896 36.9121 23.6346Z" fill="white"/>
<path d="M28.8242 20.6456H33.8242V15.6456H28.8242V20.6456ZM28.8242 23.283H23.8242V31.8989L31.3049 27.6242L28.8242 23.283ZM34.9781 19.7665L37.4588 24.1077L45.0559 19.7665L37.4588 15.4253L34.9781 19.7665ZM28.8242 16.25L31.3049 11.9088L23.8242 7.6341V16.25H28.8242ZM28.8242 18.8874V23.8874H33.8242V18.8874H28.8242ZM13.7033 29.9643L9.23116 32.2004L11.5666 36.8712L16.1315 34.3351L13.7033 29.9643ZM15.2857 29.0852L17.7139 33.456L21.8988 31.131L19.7579 26.8491L15.2857 29.0852ZM36.9121 23.6346L41.3843 21.3986L39.0489 16.7278L34.4839 19.2638L36.9121 23.6346ZM35.3297 24.5138L32.9015 20.143L28.7166 22.4679L30.8576 26.7498L35.3297 24.5138ZM21.7912 32.9533H16.7912V37.9533H21.7912V32.9533ZM21.7912 30.316H26.7912V21.7001L19.3105 25.9747L21.7912 30.316ZM15.6374 33.8324L13.1567 29.4912L5.55955 33.8324L13.1567 38.1737L15.6374 33.8324ZM21.7912 37.3489L19.3105 41.6902L26.7912 45.9648V37.3489H21.7912ZM21.7912 34.7116V29.7116H16.7912V34.7116H21.7912ZM20.9121 25.6456H28.8242V15.6456H20.9121V25.6456ZM23.8242 20.6456V23.283H33.8242V20.6456H23.8242ZM31.3049 27.6242L37.4588 24.1077L32.4974 15.4253L26.3435 18.9418L31.3049 27.6242ZM37.4588 15.4253L31.3049 11.9088L26.3435 20.5912L32.4974 24.1077L37.4588 15.4253ZM23.8242 16.25V18.8874H33.8242V16.25H23.8242ZM28.8242 13.8874H20.9121V23.8874H28.8242V13.8874ZM20.9121 13.8874C13.7551 13.8874 8 19.6424 8 26.7995H18C18 25.1653 19.2779 23.8874 20.9121 23.8874V13.8874ZM8 26.7995C8 28.4395 8.28013 30.2983 9.23116 32.2004L18.1754 27.7282C18.1146 27.6066 18.0755 27.4905 18.0487 27.3621C18.0208 27.2279 18 27.0489 18 26.7995H8ZM16.1315 34.3351L17.7139 33.456L12.8575 24.7144L11.2751 25.5935L16.1315 34.3351ZM19.7579 26.8491C19.7449 26.8232 19.7427 26.8156 19.7454 26.8231C19.7467 26.8265 19.7487 26.8322 19.7509 26.8397C19.7532 26.8472 19.7553 26.8552 19.7572 26.8631C19.7612 26.8802 19.762 26.8886 19.7615 26.8839C19.7608 26.8783 19.7582 26.852 19.7582 26.7995H9.75824C9.75824 28.4498 10.1126 29.9192 10.8136 31.3213L19.7579 26.8491ZM19.7582 26.7995C19.7582 26.5545 19.8621 26.2612 20.118 26.0053C20.3738 25.7495 20.6672 25.6456 20.9121 25.6456V15.6456C14.81 15.6456 9.75824 20.6974 9.75824 26.7995H19.7582ZM34.4839 19.2638L32.9015 20.143L37.7579 28.8845L39.3403 28.0054L34.4839 19.2638ZM30.8576 26.7498C30.8705 26.7758 30.8728 26.7833 30.87 26.7758C30.8687 26.7724 30.8668 26.7668 30.8645 26.7593C30.8622 26.7517 30.8601 26.7438 30.8582 26.7359C30.8542 26.7188 30.8535 26.7103 30.854 26.715C30.8546 26.7206 30.8572 26.7469 30.8572 26.7995H40.8572C40.8572 25.1492 40.5029 23.6797 39.8018 22.2777L30.8576 26.7498ZM30.8572 26.7995C30.8572 27.0444 30.7533 27.3378 30.4975 27.5936C30.2416 27.8494 29.9483 27.9533 29.7033 27.9533V37.9533C35.8054 37.9533 40.8572 32.9016 40.8572 26.7995H30.8572ZM29.7033 27.9533H21.7912V37.9533H29.7033V27.9533ZM26.7912 32.9533V30.316H16.7912V32.9533H26.7912ZM19.3105 25.9747L13.1567 29.4912L18.1181 38.1737L24.2719 34.6572L19.3105 25.9747ZM13.1567 38.1737L19.3105 41.6902L24.2719 33.0077L18.1181 29.4912L13.1567 38.1737ZM26.7912 37.3489V34.7116H16.7912V37.3489H26.7912ZM21.7912 39.7116H29.7033V29.7116H21.7912V39.7116ZM29.7033 39.7116C36.8604 39.7116 42.6154 33.9565 42.6154 26.7995H32.6154C32.6154 28.4337 31.3375 29.7116 29.7033 29.7116V39.7116ZM42.6154 26.7995C42.6154 25.1594 42.3353 23.3006 41.3843 21.3986L32.44 25.8707C32.5008 25.9923 32.5399 26.1085 32.5667 26.2368C32.5946 26.3711 32.6154 26.5501 32.6154 26.7995H42.6154Z" fill="#FFFBFB" mask="url(#path-1-inside-1_528_155)"/>
</svg>
