<svg width="52" height="52" viewBox="0 0 52 52" fill="none" xmlns="http://www.w3.org/2000/svg">
<path d="M20.9547 22.7719L22.1855 21.3653C20.2514 19.0796 17.4382 17.8488 14.625 17.8488V19.6071C16.9107 19.6071 19.1964 20.662 20.7789 22.4203L20.9547 22.7719ZM34.1415 31.0357C32.0316 31.0357 30.0976 30.1565 28.5151 28.7499L27.4602 30.1565C29.2184 31.9148 31.68 32.7939 34.1415 32.7939V35.4313L40.2954 31.9148L34.1415 28.3983V31.0357ZM34.1415 20.4862V23.1236L40.2954 19.6071L34.1415 16.0906V18.7279C31.3283 18.7279 28.5151 19.9587 26.7569 22.2444L20.7789 29.1016C19.1964 30.8598 16.9107 31.9148 14.625 31.9148V33.673C17.4382 33.673 20.2514 32.4423 22.0096 30.1565L27.9877 23.2994C29.5701 21.5411 31.8558 20.4862 34.1415 20.4862Z" fill="#6CC04A"/>
</svg>
