<svg width="30" height="30" viewBox="0 0 30 30" fill="none" xmlns="http://www.w3.org/2000/svg">
<path d="M22.5 5L26.25 8.75M26.25 8.75L22.5 12.5M26.25 8.75H21.25C20.0884 8.75 19.5075 8.75 19.0245 8.84607C17.0411 9.24061 15.4906 10.7911 15.0961 12.7745C15 13.2575 15 13.8384 15 15C15 16.1616 15 16.7425 14.9039 17.2255C14.5094 19.2089 12.9589 20.7594 10.9755 21.1539C10.4925 21.25 9.91164 21.25 8.75 21.25H3.75M22.5 25L26.25 21.25M26.25 21.25L22.5 17.5M26.25 21.25H21.25C20.0884 21.25 19.5075 21.25 19.0245 21.1539C18.9321 21.1355 18.8405 21.1146 18.75 21.0912M3.75 8.75H8.75C9.91164 8.75 10.4925 8.75 10.9755 8.84607C11.0679 8.86447 11.1595 8.88537 11.25 8.90872" stroke="white" stroke-width="2" stroke-linecap="round" stroke-linejoin="round"/>
</svg>
